<svg width="350" height="44" viewBox="0 0 350 44" fill="none" xmlns="http://www.w3.org/2000/svg">
<path d="M61.4886 35H53.8182L62.4602 8.81818H72.1761L80.8182 35H73.1477L67.4205 16.0284H67.2159L61.4886 35ZM60.0568 24.6705H74.4773V29.9886H60.0568V24.6705ZM91.3043 35.358C89.2077 35.358 87.4009 34.9574 85.8839 34.1562C84.3754 33.3466 83.212 32.1875 82.3938 30.679C81.5842 29.1619 81.1793 27.3466 81.1793 25.233C81.1793 23.2045 81.5884 21.4318 82.4066 19.9148C83.2248 18.3977 84.3796 17.2173 85.8711 16.3736C87.3626 15.5298 89.1225 15.108 91.1509 15.108C92.6339 15.108 93.9762 15.3381 95.1779 15.7983C96.3796 16.2585 97.4066 16.9276 98.2589 17.8054C99.1112 18.6747 99.7674 19.7315 100.228 20.9759C100.688 22.2202 100.918 23.6222 100.918 25.1818V26.8182H83.3782V22.9318H94.4237C94.4151 22.3693 94.2702 21.875 93.989 21.4489C93.7163 21.0142 93.3455 20.6776 92.8768 20.4389C92.4165 20.1918 91.8924 20.0682 91.3043 20.0682C90.7333 20.0682 90.2092 20.1918 89.7319 20.4389C89.2546 20.6776 88.8711 21.0099 88.5813 21.4361C88.3001 21.8622 88.1509 22.3608 88.1339 22.9318V27.125C88.1339 27.7557 88.266 28.3182 88.5302 28.8125C88.7944 29.3068 89.1737 29.6946 89.668 29.9759C90.1623 30.2571 90.7589 30.3977 91.4577 30.3977C91.9435 30.3977 92.3867 30.3295 92.7873 30.1932C93.1964 30.0568 93.5458 29.8608 93.8356 29.6051C94.1254 29.3409 94.3384 29.0256 94.4748 28.6591H100.918C100.696 30.0227 100.172 31.2074 99.3455 32.2131C98.5188 33.2102 97.4237 33.9858 96.06 34.5398C94.7049 35.0852 93.1197 35.358 91.3043 35.358ZM121.746 21.7557H115.252C115.218 21.3551 115.077 21.0099 114.83 20.7202C114.583 20.4304 114.263 20.2088 113.871 20.0554C113.488 19.8935 113.062 19.8125 112.593 19.8125C111.988 19.8125 111.468 19.9233 111.033 20.1449C110.599 20.3665 110.386 20.6818 110.394 21.0909C110.386 21.3807 110.509 21.6491 110.765 21.8963C111.029 22.1435 111.536 22.3352 112.286 22.4716L116.275 23.1875C118.286 23.554 119.782 24.1719 120.762 25.0412C121.751 25.902 122.249 27.0568 122.258 28.5057C122.249 29.9034 121.832 31.1179 121.005 32.1491C120.187 33.1719 119.066 33.9645 117.643 34.527C116.228 35.081 114.613 35.358 112.798 35.358C109.798 35.358 107.45 34.7443 105.754 33.517C104.066 32.2898 103.124 30.6705 102.928 28.6591H109.934C110.028 29.2812 110.335 29.7628 110.854 30.1037C111.383 30.4361 112.048 30.6023 112.849 30.6023C113.496 30.6023 114.029 30.4915 114.447 30.2699C114.873 30.0483 115.09 29.733 115.099 29.3239C115.09 28.9489 114.903 28.6506 114.536 28.429C114.178 28.2074 113.616 28.0284 112.849 27.892L109.371 27.2784C107.369 26.929 105.869 26.2642 104.871 25.2841C103.874 24.304 103.38 23.0426 103.388 21.5C103.38 20.1364 103.738 18.9815 104.462 18.0355C105.195 17.081 106.239 16.3565 107.594 15.8622C108.958 15.3594 110.573 15.108 112.44 15.108C115.278 15.108 117.515 15.696 119.151 16.8722C120.796 18.0483 121.661 19.6761 121.746 21.7557ZM136.672 15.3636V20.4773H123.734V15.3636H136.672ZM126.24 10.6591H133.297V28.6847C133.297 28.9574 133.344 29.1875 133.438 29.375C133.531 29.554 133.676 29.6903 133.872 29.7841C134.068 29.8693 134.32 29.9119 134.626 29.9119C134.839 29.9119 135.087 29.8864 135.368 29.8352C135.658 29.7841 135.871 29.7415 136.007 29.7074L137.03 34.6676C136.714 34.7614 136.263 34.8764 135.675 35.0128C135.095 35.1491 134.405 35.2386 133.604 35.2812C131.984 35.3665 130.625 35.2003 129.526 34.7827C128.426 34.3565 127.599 33.6875 127.045 32.7756C126.491 31.8636 126.223 30.7216 126.24 29.3494V10.6591ZM147.03 23.9545V35H139.973V8.81818H146.775V19.0966H146.979C147.422 17.8437 148.159 16.8679 149.191 16.169C150.222 15.4616 151.462 15.108 152.911 15.108C154.3 15.108 155.506 15.4233 156.529 16.054C157.56 16.6847 158.357 17.554 158.919 18.6619C159.49 19.7699 159.772 21.0398 159.763 22.4716V35H152.706V23.9545C152.715 22.983 152.472 22.2202 151.978 21.6662C151.492 21.1122 150.797 20.8352 149.894 20.8352C149.323 20.8352 148.82 20.9631 148.385 21.2188C147.959 21.4659 147.627 21.8239 147.388 22.2926C147.158 22.7528 147.039 23.3068 147.03 23.9545ZM172.656 35.358C170.559 35.358 168.752 34.9574 167.235 34.1562C165.727 33.3466 164.564 32.1875 163.745 30.679C162.936 29.1619 162.531 27.3466 162.531 25.233C162.531 23.2045 162.94 21.4318 163.758 19.9148C164.576 18.3977 165.731 17.2173 167.223 16.3736C168.714 15.5298 170.474 15.108 172.502 15.108C173.985 15.108 175.328 15.3381 176.529 15.7983C177.731 16.2585 178.758 16.9276 179.61 17.8054C180.463 18.6747 181.119 19.7315 181.579 20.9759C182.039 22.2202 182.27 23.6222 182.27 25.1818V26.8182H164.73V22.9318H175.775C175.767 22.3693 175.622 21.875 175.341 21.4489C175.068 21.0142 174.697 20.6776 174.228 20.4389C173.768 20.1918 173.244 20.0682 172.656 20.0682C172.085 20.0682 171.561 20.1918 171.083 20.4389C170.606 20.6776 170.223 21.0099 169.933 21.4361C169.652 21.8622 169.502 22.3608 169.485 22.9318V27.125C169.485 27.7557 169.618 28.3182 169.882 28.8125C170.146 29.3068 170.525 29.6946 171.02 29.9759C171.514 30.2571 172.11 30.3977 172.809 30.3977C173.295 30.3977 173.738 30.3295 174.139 30.1932C174.548 30.0568 174.897 29.8608 175.187 29.6051C175.477 29.3409 175.69 29.0256 175.826 28.6591H182.27C182.048 30.0227 181.524 31.2074 180.697 32.2131C179.87 33.2102 178.775 33.9858 177.412 34.5398C176.056 35.0852 174.471 35.358 172.656 35.358ZM196.859 15.3636V20.4773H183.922V15.3636H196.859ZM186.428 10.6591H193.484V28.6847C193.484 28.9574 193.531 29.1875 193.625 29.375C193.719 29.554 193.864 29.6903 194.06 29.7841C194.256 29.8693 194.507 29.9119 194.814 29.9119C195.027 29.9119 195.274 29.8864 195.555 29.8352C195.845 29.7841 196.058 29.7415 196.195 29.7074L197.217 34.6676C196.902 34.7614 196.45 34.8764 195.862 35.0128C195.283 35.1491 194.592 35.2386 193.791 35.2812C192.172 35.3665 190.813 35.2003 189.713 34.7827C188.614 34.3565 187.787 33.6875 187.233 32.7756C186.679 31.8636 186.411 30.7216 186.428 29.3494V10.6591ZM199.739 35V15.3636H206.796V35H199.739ZM203.267 13.3182C202.313 13.3182 201.495 13.0028 200.813 12.3722C200.131 11.7415 199.79 10.983 199.79 10.0966C199.79 9.21023 200.131 8.4517 200.813 7.82102C201.495 7.19034 202.313 6.875 203.267 6.875C204.23 6.875 205.049 7.19034 205.722 7.82102C206.404 8.4517 206.745 9.21023 206.745 10.0966C206.745 10.983 206.404 11.7415 205.722 12.3722C205.049 13.0028 204.23 13.3182 203.267 13.3182ZM219.852 35.358C217.721 35.358 215.897 34.9361 214.38 34.0923C212.863 33.2401 211.7 32.0554 210.89 30.5384C210.08 29.0128 209.675 27.2443 209.675 25.233C209.675 23.2216 210.08 21.4574 210.89 19.9403C211.7 18.4148 212.863 17.2301 214.38 16.3864C215.897 15.5341 217.721 15.108 219.852 15.108C221.778 15.108 223.444 15.4574 224.85 16.1562C226.265 16.8466 227.36 17.8267 228.136 19.0966C228.911 20.358 229.303 21.8409 229.312 23.5455H222.766C222.673 22.5142 222.374 21.7301 221.871 21.1932C221.377 20.6477 220.738 20.375 219.954 20.375C219.34 20.375 218.803 20.554 218.343 20.9119C217.883 21.2614 217.525 21.794 217.269 22.5099C217.013 23.2173 216.886 24.108 216.886 25.1818C216.886 26.2557 217.013 27.1506 217.269 27.8665C217.525 28.5739 217.883 29.1065 218.343 29.4645C218.803 29.8139 219.34 29.9886 219.954 29.9886C220.474 29.9886 220.934 29.8693 221.335 29.6307C221.735 29.3835 222.059 29.0256 222.306 28.5568C222.562 28.0795 222.715 27.5 222.766 26.8182H229.312C229.286 28.5483 228.89 30.0568 228.123 31.3438C227.356 32.6222 226.269 33.6108 224.863 34.3097C223.465 35.0085 221.795 35.358 219.852 35.358ZM253.407 17C253.338 16.1477 253.019 15.483 252.448 15.0057C251.885 14.5284 251.029 14.2898 249.878 14.2898C249.145 14.2898 248.544 14.3793 248.076 14.5582C247.615 14.7287 247.275 14.9631 247.053 15.2614C246.831 15.5597 246.716 15.9006 246.708 16.2841C246.691 16.5994 246.746 16.8849 246.874 17.1406C247.01 17.3878 247.223 17.6136 247.513 17.8182C247.803 18.0142 248.174 18.1932 248.625 18.3551C249.077 18.517 249.614 18.6619 250.236 18.7898L252.384 19.25C253.833 19.5568 255.073 19.9616 256.104 20.4645C257.135 20.9673 257.979 21.5597 258.635 22.2415C259.292 22.9148 259.773 23.6733 260.08 24.517C260.395 25.3608 260.557 26.2812 260.566 27.2784C260.557 29 260.127 30.4574 259.275 31.6506C258.422 32.8438 257.203 33.7514 255.618 34.3736C254.042 34.9957 252.145 35.3068 249.929 35.3068C247.654 35.3068 245.668 34.9702 243.972 34.2969C242.284 33.6236 240.972 32.5881 240.034 31.1903C239.105 29.7841 238.637 27.9858 238.628 25.7955H245.378C245.421 26.5966 245.621 27.2699 245.979 27.8153C246.337 28.3608 246.84 28.7741 247.488 29.0554C248.144 29.3366 248.924 29.4773 249.827 29.4773C250.586 29.4773 251.221 29.3835 251.732 29.196C252.243 29.0085 252.631 28.7486 252.895 28.4162C253.159 28.0838 253.296 27.7045 253.304 27.2784C253.296 26.8778 253.164 26.5284 252.908 26.2301C252.661 25.9233 252.252 25.6506 251.681 25.4119C251.11 25.1648 250.338 24.9347 249.367 24.7216L246.759 24.1591C244.441 23.6562 242.613 22.8168 241.275 21.6406C239.945 20.456 239.284 18.8409 239.293 16.7955C239.284 15.1335 239.728 13.6804 240.623 12.4361C241.526 11.1832 242.775 10.2074 244.368 9.50852C245.971 8.80966 247.807 8.46023 249.878 8.46023C251.992 8.46023 253.82 8.81392 255.363 9.52131C256.905 10.2287 258.094 11.2259 258.929 12.5128C259.773 13.7912 260.199 15.2869 260.208 17H253.407ZM263.372 42.3636V15.3636H270.377V18.7898H270.531C270.787 18.125 271.162 17.5156 271.656 16.9616C272.15 16.3991 272.764 15.9517 273.497 15.6193C274.23 15.2784 275.082 15.108 276.054 15.108C277.349 15.108 278.581 15.4531 279.748 16.1435C280.924 16.8338 281.879 17.9205 282.612 19.4034C283.353 20.8864 283.724 22.8125 283.724 25.1818C283.724 27.4489 283.37 29.3281 282.663 30.8196C281.964 32.3111 281.027 33.4233 279.85 34.1562C278.683 34.8892 277.4 35.2557 276.002 35.2557C275.082 35.2557 274.26 35.1065 273.535 34.8082C272.819 34.5014 272.206 34.0881 271.694 33.5682C271.191 33.0398 270.804 32.4432 270.531 31.7784H270.429V42.3636H263.372ZM270.275 25.1818C270.275 26.1364 270.399 26.9631 270.646 27.6619C270.902 28.3523 271.26 28.8892 271.72 29.2727C272.189 29.6477 272.747 29.8352 273.395 29.8352C274.042 29.8352 274.592 29.652 275.044 29.2855C275.504 28.9105 275.853 28.3778 276.092 27.6875C276.339 26.9886 276.463 26.1534 276.463 25.1818C276.463 24.2102 276.339 23.3793 276.092 22.6889C275.853 21.9901 275.504 21.4574 275.044 21.0909C274.592 20.7159 274.042 20.5284 273.395 20.5284C272.747 20.5284 272.189 20.7159 271.72 21.0909C271.26 21.4574 270.902 21.9901 270.646 22.6889C270.399 23.3793 270.275 24.2102 270.275 25.1818ZM292.152 35.3068C290.899 35.3068 289.791 35.1023 288.828 34.6932C287.874 34.2756 287.124 33.6449 286.578 32.8011C286.033 31.9574 285.76 30.8835 285.76 29.5795C285.76 28.5057 285.943 27.5895 286.31 26.831C286.676 26.0639 287.188 25.4375 287.844 24.9517C288.5 24.4659 289.263 24.0952 290.132 23.8395C291.01 23.5838 291.956 23.4176 292.97 23.3409C294.07 23.2557 294.952 23.1534 295.616 23.0341C296.29 22.9062 296.776 22.7315 297.074 22.5099C297.372 22.2798 297.521 21.9773 297.521 21.6023V21.5511C297.521 21.0398 297.325 20.6477 296.933 20.375C296.541 20.1023 296.038 19.9659 295.425 19.9659C294.751 19.9659 294.202 20.1151 293.776 20.4134C293.358 20.7031 293.107 21.1506 293.021 21.7557H286.527C286.612 20.5625 286.991 19.4631 287.665 18.4574C288.347 17.4432 289.339 16.6335 290.643 16.0284C291.947 15.4148 293.575 15.108 295.527 15.108C296.933 15.108 298.195 15.2741 299.311 15.6065C300.428 15.9304 301.378 16.3864 302.162 16.9744C302.946 17.554 303.543 18.2358 303.952 19.0199C304.369 19.7955 304.578 20.6392 304.578 21.5511V35H297.982V32.2386H297.828C297.436 32.9716 296.959 33.5639 296.396 34.0156C295.842 34.4673 295.207 34.7955 294.491 35C293.784 35.2045 293.004 35.3068 292.152 35.3068ZM294.453 30.858C294.99 30.858 295.493 30.7472 295.962 30.5256C296.439 30.304 296.827 29.9844 297.125 29.5668C297.423 29.1491 297.572 28.642 297.572 28.0455V26.4091C297.385 26.4858 297.185 26.5582 296.972 26.6264C296.767 26.6946 296.545 26.7585 296.307 26.8182C296.077 26.8778 295.83 26.9332 295.565 26.9844C295.31 27.0355 295.041 27.0824 294.76 27.125C294.214 27.2102 293.767 27.3509 293.418 27.5469C293.077 27.7344 292.821 27.9688 292.651 28.25C292.489 28.5227 292.408 28.8295 292.408 29.1705C292.408 29.7159 292.599 30.1335 292.983 30.4233C293.366 30.7131 293.857 30.858 294.453 30.858ZM317.41 35.358C315.279 35.358 313.456 34.9361 311.939 34.0923C310.422 33.2401 309.258 32.0554 308.449 30.5384C307.639 29.0128 307.234 27.2443 307.234 25.233C307.234 23.2216 307.639 21.4574 308.449 19.9403C309.258 18.4148 310.422 17.2301 311.939 16.3864C313.456 15.5341 315.279 15.108 317.41 15.108C319.336 15.108 321.002 15.4574 322.409 16.1562C323.824 16.8466 324.919 17.8267 325.694 19.0966C326.47 20.358 326.862 21.8409 326.87 23.5455H320.325C320.231 22.5142 319.933 21.7301 319.43 21.1932C318.936 20.6477 318.297 20.375 317.512 20.375C316.899 20.375 316.362 20.554 315.902 20.9119C315.441 21.2614 315.083 21.794 314.828 22.5099C314.572 23.2173 314.444 24.108 314.444 25.1818C314.444 26.2557 314.572 27.1506 314.828 27.8665C315.083 28.5739 315.441 29.1065 315.902 29.4645C316.362 29.8139 316.899 29.9886 317.512 29.9886C318.032 29.9886 318.493 29.8693 318.893 29.6307C319.294 29.3835 319.618 29.0256 319.865 28.5568C320.12 28.0795 320.274 27.5 320.325 26.8182H326.87C326.845 28.5483 326.449 30.0568 325.681 31.3438C324.914 32.6222 323.828 33.6108 322.422 34.3097C321.024 35.0085 319.353 35.358 317.41 35.358ZM339.191 35.358C337.094 35.358 335.288 34.9574 333.771 34.1562C332.262 33.3466 331.099 32.1875 330.281 30.679C329.471 29.1619 329.066 27.3466 329.066 25.233C329.066 23.2045 329.475 21.4318 330.293 19.9148C331.112 18.3977 332.266 17.2173 333.758 16.3736C335.249 15.5298 337.009 15.108 339.038 15.108C340.521 15.108 341.863 15.3381 343.065 15.7983C344.266 16.2585 345.293 16.9276 346.146 17.8054C346.998 18.6747 347.654 19.7315 348.114 20.9759C348.575 22.2202 348.805 23.6222 348.805 25.1818V26.8182H331.265V22.9318H342.31C342.302 22.3693 342.157 21.875 341.876 21.4489C341.603 21.0142 341.232 20.6776 340.763 20.4389C340.303 20.1918 339.779 20.0682 339.191 20.0682C338.62 20.0682 338.096 20.1918 337.619 20.4389C337.141 20.6776 336.758 21.0099 336.468 21.4361C336.187 21.8622 336.038 22.3608 336.021 22.9318V27.125C336.021 27.7557 336.153 28.3182 336.417 28.8125C336.681 29.3068 337.06 29.6946 337.555 29.9759C338.049 30.2571 338.646 30.3977 339.344 30.3977C339.83 30.3977 340.273 30.3295 340.674 30.1932C341.083 30.0568 341.433 29.8608 341.722 29.6051C342.012 29.3409 342.225 29.0256 342.362 28.6591H348.805C348.583 30.0227 348.059 31.2074 347.232 32.2131C346.406 33.2102 345.31 33.9858 343.947 34.5398C342.592 35.0852 341.006 35.358 339.191 35.358Z" fill="white"/>
<path d="M25.0628 20.9372V9.00213H36.4544C37.4637 9.00213 38.3069 9.32946 38.9841 9.98414C39.6614 10.6388 40 11.4557 40 12.4349V20.9372H25.0628ZM3.54342 35C2.53415 35 1.6909 34.672 1.01366 34.0159C0.336428 33.3598 -0.00145798 32.5428 4.72859e-06 31.5651V12.4349C4.72859e-06 11.4572 0.33789 10.6402 1.01366 9.98414C1.68943 9.32805 2.53269 9 3.54342 9H22.8687V35H3.54342ZM25.0628 35V23.0628H40V31.5651C40 32.5428 39.6614 33.3598 38.9841 34.0159C38.3069 34.672 37.4637 35 36.4544 35H25.0628Z" fill="white"/>
</svg>
