<svg version="1.1" xmlns="http://www.w3.org/2000/svg" viewBox="0 0 1 1" preserveAspectRatio="none">
    <defs>
        <clipPath id="heroSection" clipPathUnits="objectBoundingBox">
            <path d="M0.035,0.482 L0.281,0.301 C0.298,0.289,0.317,0.308,0.317,0.338 V0.959 C0.317,0.982,0.328,1,0.342,1 H0.975 C0.989,1,1,0.982,1,0.959 V0.041 C1,0.018,0.989,0,0.975,0 H0.025 C0.011,0,0,0.018,0,0.041 V0.444 C0,0.474,0.019,0.494,0.035,0.482"/>
        </clipPath>
        <clipPath id="presentSection" clipPathUnits="objectBoundingBox">
            <path d="M0.049,0.289 L0.882,0.018 C0.937,0,1,0.022,1,0.066 V0.95 C1,0.984,0.963,1,0.917,1 H0.083 C0.037,1,0,0.984,0,0.95 V0.346 C0,0.321,0.019,0.299,0.049,0.289"/>
        </clipPath>
        <clipPath id="sliderPath" clipPathUnits="objectBoundingBox">
            <path d="M0.968,0.916 h-0.064 c-0.017,0,-0.032,0.018,-0.032,0.04 v0.004 c0,0.022,-0.014,0.04,-0.032,0.04 h-0.683 c-0.017,0,-0.032,-0.018,-0.032,-0.04 v-0.004 c0,-0.022,-0.014,-0.04,-0.032,-0.04 H0.032 c-0.017,0,-0.032,-0.018,-0.032,-0.04 V0.06 C0,0.027,0.021,0,0.048,0 h0.905 c0.026,0,0.048,0.027,0.048,0.06 v0.816 C1,0.898,0.986,0.916,0.968,0.916"/>
        </clipPath>
        <clipPath id="galleryBigPath" clipPathUnits="objectBoundingBox">
            <path d="M0.965,0.491 L0.702,0.337 C0.685,0.325,0.666,0.344,0.666,0.374 V0.959 C0.666,0.982,0.655,1,0.641,1 L0.025,1 C0.011,1,0,0.982,0,0.959 L0,0.041 C0,0.018,0.011,0,0.025,0 L0.975,0 C0.989,0,1,0.018,1,0.041 V0.454 C1,0.483,0.981,0.503,0.965,0.491"/>
        </clipPath>
        <clipPath id="gallerySmallPath" clipPathUnits="objectBoundingBox">
            <path d="M0.956,0.267 L0.106,0.018 C0.057,0,0,0.031,0,0.075 V0.952 C0,0.986,0.034,1,0.075,1 H0.925 C0.966,1,1,0.986,1,0.952 V0.323 C1,0.299,0.982,0.277,0.956,0.267"/>
        </clipPath>
        <clipPath id="gallerySmallRotatePath" clipPathUnits="objectBoundingBox">
            <path d="M0.044,0.746 L0.894,0.995 C0.943,1,1,0.982,1,0.938 V0.061 C1,0.027,0.966,0,0.925,0 H0.075 C0.034,0,0,0.027,0,0.061 V0.691 C0,0.715,0.017,0.736,0.044,0.746"/>
        </clipPath>
        <clipPath id="dividerTop" clipPathUnits="objectBoundingBox">
            <path d="M0,0 v0.801 c0,0.124,0.013,0.21,0.028,0.198 l0.776,-0.585 c0.019,-0.016,0.038,0.014,0.055,0.086 l0.106,0.381 c0.017,0.07,0.036,-0.031,0.036,-0.187 V0 H0"/>
        </clipPath>
        <clipPath id="dividerBottom" clipPathUnits="objectBoundingBox">
            <path d="M0,1 V0.493 C0,0.433,0.01,0.384,0.023,0.378 L0.803,0.002 c0.019,-0.009,0.038,0.014,0.055,0.053 l0.128,0.301 c0.008,0.019,0.014,0.059,0.014,0.103 V1 H0"/>
        </clipPath>
    </defs>
</svg>